<?xml version="1.0" encoding="UTF-8"?><svg id="Layer_1" xmlns="http://www.w3.org/2000/svg" viewBox="0 0 496 426"><defs><style>.cls-1{fill:#fdfff4;}.cls-2{fill:#3f99b6;}</style></defs><path class="cls-1" d="M268,372c10.4,7.8,20-33,28-36s141-58,115-170S246,45,197,59,52,92,53,220s156,125,185,125c9,7,14,15,30,27Z"/><g><path class="cls-2" d="M270.48,371.44c-.59-.03-.85-.13-.92-.06-.07,.05,.06,.17,.19,.29,.13,.11,.26,.16,.15,.14-.1-.03-.47-.15-1.18-.77,.58-.03,1.07,.07,1.76,.41Z"/><path class="cls-2" d="M258.61,362.98c-2.7-1.68-5.36-3.84-7.96-6.26-2.6-2.42-5.14-5.11-7.84-7.7-1.37-1.29-2.72-2.55-4.24-3.76-.19-.14-.36-.34-.57-.43h-4.95c-3.7,0-7.34,.1-10.81,.36-1.62,.05,.45-1.17-3.21-.98-6.72,.64-15.39,.35-24.33-.75-8.95-1.09-18.16-2.98-26.01-5.17l1.03-.14c-2.99-.79-6.92-.5-10.1-1.37,.02-.22,1.1-.08,.42-.54-.96,.48-5.84-1.07-7.31-.96-1.19-.58-.93-1.05-2.47-1.78l-2.01,.23c-2.76,.16-5.81-.81-9.02-2.01-3.2-1.24-6.55-2.68-10.03-3.59,.39-.04,1.09,.1,.63-.27-5.53-1.59-11.55-4.04-17.47-7.07-5.94-3.01-11.73-6.66-17.01-10.39,.57,.1,1.24-.01,.82-.71-.49,.13-1.57-.35-2.86-1.15-1.26-.83-2.8-1.89-4.14-3-.62-1.63-4.99-3.37-7.48-6.68l.37,.12c-1.37-.78-2.05-1.68-2.66-2.54-.62-.86-1.21-1.62-2.41-2.22l-.71-1.9c-.86-.15-1.47-1.07-2.03-2.2-.56-1.13-1.15-2.4-2.12-3.23l-.15,.21c-1.53-1.8-1.81-3.09-3.09-4.84v-.25c-.72-1.05-1.36-2-1.84-2.86-.47-.87-.87-1.62-1.19-2.22-.66-1.19-1.05-1.79-1.41-1.53-.22-1.9,2.66,4.18,2.24,1.21-4.46-7.04-7.7-14.98-10.02-23.15-2.29-8.2-3.48-16.68-4.03-25.06,.22-1.93,.28-3.14,.63-3.58-.11-.83-.2-2.4-.32-3.96-.12-1.55-.16-3.09-.4-3.86,0,.56,.48-1.08,.54-1.96,.39-3.04-.94-3.35-.48-6.69,.22,1.34,.51,1.8,.85,1.37-.37-1.44-.36-3.11-.34-4.84,.02-1.74,.11-3.53,.11-5.23,.12,.54,.15,1.36,.45,1.25-.63-3.76,.79-6.68,.65-9.95l.38,1.27c1.26-5.08-.94-1.67,.03-6.09-.03,1.09,.26,.75,.44,.97-.23-4.28,1.15-10.97,1.94-15.11,.01,.26,.17,.23,.17,.23,.83-4.52,2.57-9,3.64-13.95,.86-1.65,1.01,.97,2.49-3.62-.52-.1,.08-2.06,.56-3.73,.51-1.65,.99-2.96-.16-1.88,.92-1.87,2.11-4.28,3.22-6.54,1.2-2.21,2.31-4.26,2.79-5.58-.51,1.84,2.06-1.17,.56,1.91l1.75-1.99c.2,.55-1.35,2.28-.5,1.81,.18-.39,.44-.96,.75-1.62,.15-.33,.31-.69,.48-1.05,.19-.35,.38-.72,.57-1.08,.78-1.45,1.57-2.87,2.03-3.48,.27-.76,.51-1.53,.75-2.32,.26-.78,.57-1.57,.91-2.41,.71-1.66,1.53-3.58,3.06-5.68-1.19,2.15,1.79-.38,.9,1.02,.96-2.27,1.91-4.6,2.94-6.91,1.12-1.33,.88,.26,2.35-1.78-.3-.09,.31-1.01,.65-1.74,.13-.1,.49-.5,.97-1.04,.24-.27,.51-.57,.8-.89,.31-.3,.64-.61,.97-.93,1.33-1.25,2.75-2.42,3.38-2.31,.82-.24-1.85,2.13-.23,1.05,2.24-2.26,2.13-2.58,4.51-4.7l.14,.06c.84-.64,1.92-1.75,2.56-2.56,.66-.78,.83-1.29-.25-.79-1.16,.91,.81,.1-1.02,1.3,.35-.74,1.24-1.71,2.37-2.74,1.12-1.04,2.46-2.16,3.72-3.15-.76,.81-.49,.95-.66,1.45,2.93-3.25,6.55-6.11,10.47-8.97-.2-.46-1.04,1.73-1.77,1.9,5.48-2.86,10.48-7.39,15.51-8.91-.7,.47-.72-.41-.61-.31,2.69-1.28,2.9-.55,4.52-1.64,.36,.31,2.12-1.21,3.9-2.1,.82-.69,.56-.02-1.01,.72,.6-.36,1.66-.95,3.02-1.66,.68-.35,1.44-.74,2.24-1.15,.82-.37,1.69-.77,2.58-1.18,3.57-1.64,7.69-3.16,10.8-3.96-.21-.22,3.38-2.27,4.78-2.71l-.34,.8c1.39-.06,4.66-1.59,5.07-1.14,1.37-.86-1.45,.24-4.13,1.31-2.67,1.11-5.18,2.23-3.28,1.24,.61,.08,1.91-.66,3.01-1.26,1.1-.59,1.97-1.05,1.67-.49,2.79-.96,5.3-2.51,8.17-2.75-.81,.14-2.02,1.56,.24,.82,3.96-1.33,1.05-.64,4.23-1.82l1.97-.86c-.04-.66,3.61-.94,1.93-1.2,.64,.36,5.76-1.96,5.62-.83l-.33,.95c1.72-.54,2.6-1.63,3.87-2.36,.25,.01,.75,.05,.69,.2-.06-1.29,4.17-1.04,5.95-2.56,.93-.15,1.97-.38,3.04-.64,1.11-.26,2.26-.52,3.34-.78,2.16-.54,4.1-.74,5.06-.57,.71-.24,1.4-.48,2.09-.72,.7-.21,1.39-.4,2.11-.58,1.43-.35,2.93-.68,4.62-.75-.65,.18-1.56,.38-1.71,.67,2.14,.04,2.61-.3,4.5-.75-.2,.12,.87,.18,2.28,.22,1.41,.06,3.17,.19,4.35,.3,2.87-.62,1.83-1.22,2.09-1.66,2.74,1.07,8.22-1.28,11.6-.16-1.01,.19-4.23,.68-1.81,.96,2.67,1.2,5.35-1.05,9.65-.35l-1.04-1.05c.95,.33,2.54,.21,3.83,.13,1.29-.07,2.29-.05,2.05,.46,1.45-.31,5.04,.58,4.62-.45,6.99,1.24,17.23,.92,21.26,3.44,1.02-.02,3.49,.52,3.06-.07-1.58-.8-2.38,.06-2.94-.41,.9,.1,1.14-.14,1.25-.27,2.14,.55,3.83,.87,1.65,1.4,2.36,.64,3.65,.51,5.14,.3,1.48-.18,3.15-.42,6.16,.41-.36,.35,.07,.6,1.86,.93l3.53,.05c1.95,.51,2.45,.88,2.45,1.2,0,.32-.48,.57-.51,.93,2.1,.42,4.63,1.12,5.7,.86l2.28,1.52c-.83-.55-.37-.55,.42-.38,.78,.19,1.9,.54,2.4,.6l-1.01-.13c.3,.4,2.71,.95,3.94,1.23-.15-.5-2.52-1.41-3.81-1.94,1.14,.02,2.75,.59,4.26,.67-.67,.53,3.22,1.46,4.79,2.15,1.8,.79,2.29,.15,2.83,.36-.07,.36,3.01,1.13,1.39,1.09-.67-.11-1.32-.84-2.47-.91,1.13,.68,.78,1.22,3.46,1.68,2.02,.37,0-1.51,3.43,.33-1-.22-1.27-.03-2.08-.09l3.2,1.68,.38-.53c.39,.33,.06,.25,.24,.42,1.24-.22,5.17,1.86,6.19,1.58,1.69,.71,3.3,2.01,4.85,2.8l-.33-.09c1.79,1.17,4.34,2.35,6.14,2.78l-.15,.08c.99,.61,3.51,1.72,4.92,2.18,2.29,1.92-.35,2.57,2.83,3.53,2.55,1.48,4.6,1.43,3.79,.45,2.12,1.67,4.57,3.16,6.95,4.67,2.34,1.57,4.52,3.32,6.2,5.2,.77,.27,.48-.15,1.84,.71,1.45,1.35,2.99,2.68,4.55,4,.78,.66,1.56,1.31,2.34,1.96,.74,.69,1.47,1.4,2.18,2.09,1.43,1.39,2.8,2.77,4.04,4.13,1.2,1.39,2.17,2.86,2.98,4.24-1.7-1.56-.57,.3-.82,.57,1.66,1.06,1.03,2.08,2.21,1.97,.31-.51,.65-.54-.63-2.38,.83,.85,1.75,1.82,2.68,2.85,.89,1.06,1.73,2.22,2.54,3.31,1.58,2.22,3.02,4.22,3.48,5.49-.49-1.26,.2-.5,.9,.28-.94,.22,.81,3.23,2.49,5.28l.68,.03,.43,1.74c.66,.78,1.55,.41,2.33,2.98-.12,.22-.24,.46-.16,.96,.84,1.1,1.89,2.41,2.85,3.81,.5,.69,.89,1.44,1.23,2.19,.34,.75,.63,1.5,.82,2.23l.24,2.55c.59,1.12,1.9,2.89,1.21,.75,.86,2.39,1.36,4.42,1.76,6.03,.39,1.61,.62,2.81,.55,3.67,.55,.95,1.13,1.97,1.66,3.06,.47,1.1,.93,2.26,1.39,3.47,.88,2.42,1.83,4.97,2.54,7.65,1.46,5.34,2.28,11.04,2.75,16.12l-.44-.26c-.14,2.76,.85,1.35,.73,3.28-.47-.85-.67,2.13-1.35,.04-.05,1.95,.14,3.19,.46,4.26,.32,1.07,.69,1.98,.78,3.25,.55,.38-.37-2.04,.33-1.56,.18,.44-.34,5.43,.4,6.05-.36,.98-.94,.19-1.25-.34l.32,2.4c-.53,1.44-.9-.25-1.31-1.89-.38-1.64-.93-3.23-1.49-1.74,.05,.72,.05,1.44,.07,2.16-.47,1.01-.66-.42-.8-1.42-.06-.5-.15-.9-.21-.83-.06,.06-.12,.59-.25,1.92,.33,2.32,1.45,4.41,1.89,2.33,.01,2.46,.4,3.06,.83,3.71,.38,.65,.83,1.37,.46,4.03-.33,.7-.23-.37-.15-1.49,.06-1.13,.05-2.31-.32-1.82-.4,1.23-.47,2.48-.47,3.71,0,1.23,.08,2.45-.23,3.53,.69-2.41,1.19-.23,1.09,1.41-.81,2.65-.5-1.87-1.18,1.93,.36,.7,0,4.29,.93,1.31,.78,1.6-1.06,3.93-.78,6.17-1.03,1.04-.78-4.28-2.14-.24,.43-.24,.38,1.09,.38,2.25-.02,1.15,.05,2.13,.89,1.18-.66,1.57-1.26,1.57-1.36,.28-1.03,2.17-.41,5.94-2.03,6.24l.45,1.02c-.49,.62-1.02,1.57-1.82,2.57-.71,1.96-1.57,6.67-2.55,6.03-.15,.66-2.19,4.99-.7,3.64,1.65-2.54,.9-3.35,2.51-4.47-1.63,1.6-1.62,4-2.12,5.69l-.52,.06c-.31,1-1.41,3.1-1.32,3.87,.15-.81-.31-.59-.79,.09l.08,1.26c-.83,1.94-1.22,2.01-1.61,2.06-.39,.05-.78,.08-1.7,1.88l1.08-2.92c-.24,.64-1.46,1.52-2.24,3.3,.15,.96,.02,2.53,.08,3.34-.99,2.09-1.1,.52-1.81,2.74,.34-.95,.66-1.91,.96-2.88,.07-.48-1.88,1.17-3.54,3.68-.89,1.72-1.93,4.69,.11,2.36-.87,1.27-2.4,2.81-2.06,1.55-1.85,2.92,.81,.02-.66,2.65-1.04,.76-3.81,3.43-5.7,4.82,.4-1.01,.75-2.04,1.12-3.05l-1.27,1.6c.99-2.59-1.31,.66-1.06-1.04-.96,1-1.81,2.46-2.49,3.64,1.81-1.12,1.46,.05,.84,1.5-.64,1.43-1.55,3.14-.68,3.11-3.53,4.44-4.56,.58-7.16,6.16,.9-.47-.33,2.2,1.86-.62-2.52,2.43-.76,2.59-4.06,5.16,1.83-2.5-3.23,1.37-.6-2.23,.08,.51,1.95-1.51,2.34-2.08-1.35,.68-.69-1.09-3.19,1.42-1.46,1.59-3.58,3.66-2.83,3.83,.57,.47,2.34-2.35,1.84-.86-2.98,3.17-4.24,2.84-4.73,4.98,1.98-1.9,2.96-1.85,3.26-1.45-.72,.8-1.43,1.61-2.17,2.39l.15-.77c-4.07,3.14-.54,1.68-4.4,4.83-.79,.27-1.59,.53-2.39,.78,.41-1.35,5.72-4.42,4.18-4.84-2.45,2.07-2.82,3.29-5.38,4.95,.45-.52,1.14-1.13,1.57-1.64-.93,.69-2.88,.11-5.81,3.74-1.6,1.77-.2,.76,.06,1.18-3.98,3.27-4.92,4.6-7.57,6.61,0-1.16-4.84,3.32-2.42,.4,1.71-.49,7.69-4.97,8.54-6.84-2.17,.26,3.28-2.36,3.4-3.97-3.22,2.55-3.76,1.54-4.74,1.36-.93,.65-1.6,1.56-2.07,2.07,.04,.84,1.21-.07,1.71,.44-3.74,2.64-7.08,5.51-8.78,7.51-1.45,.6-1.45-.25,0-1.34-4.33,3.29-9.26,6.4-13.77,8.89,3.45-.76-4.79,3.21-2.37,2.83,2.51-1.19,4.97-1.77,3.93-.54-1.53,.84-.21-.45-.96-.28-1.58,1.69-3.46,.92-4.84,2.86,4.12-2.84,.14-1.68,.48-2.91-2.83,2.24-.19-.61-3.23,1.15-2.84,2.2-6.49,4.64-9.93,6.62-4.79,1.55-11.31,5.55-15.46,7.29-1.17,.24-1.49-.02-1.81-.25-.16-.11-.32-.22-.6-.24-.29-.01-.6-.04-1.11,.21-1.05,.76-.44,.7-.11,.67,.18,0,.32,.02,.23,.12-.05,.05-.15,.13-.32,.26-.17,.12-.42,.31-.79,.63l.11-.41c-.32,.47-1.62,1.82-2.63,3.49-1.02,1.65-1.8,3.47-1.45,4.36l-.35-1.68c-.46,.67-.58,1.44-.78,2.09-.33-.13-1.04,.57-.66-.71-1.88,2.06-2.35,5.12-3.57,7.76l1.38-1.42c-1.69,4.73-3.65,7.51-5.8,11.9l-.48-.43c-.36,.9-.74,1.8-1.14,2.7-.16-.91-1.84,1.12-2.38,2.63,1.11-2.32,1.89-4.71,2.61-7.12,1.3-1.64-.4,2.34,.75,1.5,1.03-.7,2.92-4.8,2.67-5.72-.82,1.51-.73,1.64-1.13,2.93-1.03,.1,.17-2.19,.2-3.6-.36,.82-1.16,1.83-1,2.13,.4-1.75,1.11-3.36,2.34-6.02-.54,1.94,.95-.74,.86,.04-.59-.54,.36-3.18,2.16-6.37,.97-.98,1.61-2.57,2.34-4.39,.75-1.81,1.57-3.87,3.21-5.63-.66,1.98-1.26,4.14-2.21,6.55,.8-1.07,1.17-1.7,1.55-2.33,.38-.63,.77-1.27,1.72-2.2,.16-.68,.22-1.34,.62-2.21,.22-.44,.55-.95,1.1-1.43,.27-.24,.63-.46,1-.66,.3-.18,.64-.37,1.01-.57l.39,.46c2.74-1.47,2.4-2.24,6.04-3.72,6.24-2.56,12.41-5.79,16.94-8.23l.45,.41c1.92-2.45,8.07-5.16,11.05-7.69,5.89-2.99,11.57-8.29,14.85-9.48,9.1-7.19,16.57-13.99,25.16-22.27l-.83,2.02c1.08-1.96,1.32-.65,2.73-2.23-1.09,.62-.73-.04-.02-1.05,.7-1.02,1.74-2.37,2.06-3.08,4.12-3.42,7.98-9.15,10.3-13.23l.57,.2c1.99-4.41,5.95-8.49,9.08-13.51,.54-.47,1.55-1.13,2.36-2.69,.34-1.64,.73-2.81,1.22-4.13,.44-1.34,1.09-2.8,1.76-5.05,1.47-3.06,3.65-8.12,5.06-11.3,1.39-6.29,2.76-12.56,3.65-18.99,.89-6.42,1.26-13,.64-19.59l.63-.98c-.98-6.39-1.9-13.45-3.29-20.24-1.49-6.75-3.16-13.3-5.46-18.29l1.44,.61c-.42-1.69-1.11-3.54-1.84-4.79-.78-1.22-1.48-1.89-1.68-1.33-.53-1.64-1.52-3.55-2.38-5.34-.21-.45-.41-.89-.61-1.32-.22-.41-.42-.81-.6-1.2-.35-.77-.59-1.46-.63-2.06-.74-1.6-1.36-2.49-1.99-3.29-.64-.79-1.22-1.52-2.1-2.69-1.71-3.06-2.88-5.18-4.21-7.12-1.41-1.89-2.85-3.7-4.91-6.28l.92,1.36c.63,.43,1.06,.18,.13-1.19-.81-.94-2.32-2.65-3.43-3.89-1.13-1.22-1.95-1.88-1.66-.5-.5-.73-1.05-1.47-1.64-2.21-.57-.76-1.3-1.41-1.99-2.13-1.41-1.4-2.91-2.81-4.39-4.21-1.55-1.34-3.15-2.62-4.59-3.94-.73-.66-1.42-1.32-2.08-1.98-.69-.62-1.35-1.24-1.95-1.88,.23,.65-1.19-.35-1.92-.59-1.24-.93-2.42-1.96-3.67-2.91-1.26-.93-2.51-1.85-3.73-2.75-.62-.44-1.22-.88-1.82-1.31-.59-.43-1.2-.83-1.82-1.17-1.22-.71-2.41-1.33-3.56-1.83-.76-.67,1.68,.26-.48-1.08-1.36-.65-.28,.41-1.97-.36-2.28-1.09-4.57-2.18-6.79-3.4-.56-.3-1.1-.62-1.67-.91l-1.7-.85c-1.12-.58-2.24-1.16-3.35-1.73-2.2-1.21-4.47-2.22-6.68-3.23-1.11-.5-2.21-.99-3.31-1.45-1.11-.43-2.22-.81-3.32-1.18-7.83-2.5-15.96-4.65-24.06-6.51-8.1-1.9-16.25-3.23-24.08-4.14l.21-.25c-2.69,.24-5.73-.43-8.68-.82-1.47-.22-2.91-.42-4.26-.49-1.34-.05-2.59,.08-3.66,.42-1.23-.32-4.76-.35-3.81-.84-2.12,.31-5.06,.1-8.24-.08-3.18-.08-6.61-.22-9.62,.46,.56,0,.87-.07,1.51-.23-3.08-.15-5.97,.03-8.87,.38-2.92,.26-5.83,.74-9.07,.84,.63-.2,1.8-.43,1.96-.72-.64-.06-1.31,.03-1.99,.18-.67,.17-1.35,.4-1.99,.6-1.29,.4-2.44,.68-3.24,.13-1.4,.26-.88,.84-.03,.64-1.73,.26-3.47,.59-5.22,.92-1.73,.39-3.43,.83-5.18,1.29-3.6,1.03-7.22,2.1-10.83,3.2-7.22,2.2-14.42,4.55-21.45,6.97-5.19,1.27-5.52,.81-5.52,.45,0-.36,.34-.6-3.47,1.26-.74-.02-.3,.65-.5,.42-2.93,1.44-5.27,.37-7.15,1.81,1.16,.42-1.23,.98-1.1,1.48-3.1,.98-5.05,1.4-6.73,1.99-1.69,.58-3.21,1.15-5.38,2.55l.16-.56c-4.93,3.62-11.32,6.37-14.91,10.16-13.89,8.58-25.96,19.28-35.24,31.91-4.61,6.33-8.66,13.03-12,20.09-.86,1.75-1.56,3.59-2.35,5.37l-1.16,2.69-.99,2.77c-.65,1.85-1.34,3.69-1.97,5.55-.55,1.89-1.11,3.78-1.66,5.67-.28,.93-.6,1.86-.84,2.8l-.69,2.85c-.46,1.9-.91,3.79-1.37,5.69l-1.02,5.77c-.32,1.92-.73,3.83-.9,5.78l-.68,5.82c-.1,.97-.25,1.94-.31,2.91l-.18,2.93-.37,5.87-.09,1.47-.02,1.47-.04,2.95c-.24,7.92,0,15.62,.93,23.35,.94,7.7,2.56,15.32,4.93,22.77,.29,1.84,.68,3.2,.95,4.4,.28,1.2,.62,2.15,1.01,3.11,.75,1.93,1.76,3.86,3.87,7.31-.32-.2-.6-.62-.49-.07,.51-.04,1.21,1.19,1.94,2.46,.77,1.25,1.58,2.52,2.15,2.61,6.04,9.83,13.53,17.61,22.87,25.02-1.52-1.11-2.74-1.13-.96,.25,.72,.35,1.49,.65,2.23,.98l.15,.44c1.31,.83,2.93,1.45,1.83,.26,12.32,8.51,25.85,15.22,40.04,20.35,14.2,5.11,29.03,8.67,44.08,10.58,7.09,1.39,17.37,1.99,25.21,2.21,5.79,.64,11.46,1.1,17.09,1.43,2.82,.16,5.62,.28,8.43,.38l3.23,.07c.29,.01,.59,0,.87,.04l.68,.57,1.35,1.13c1.05,.86,1.38,1.22,1.98,1.75,.56,.5,1.07,1.02,1.61,1.53,4.22,4.12,7.91,8.29,12.02,12.12,4.07,3.85,8.5,7.41,13.31,10.76,0,0-.96,.02-2.95-.66-1.97-.69-4.98-2.1-8.85-5.15Z"/><path class="cls-2" d="M273.47,369.97c.86-.07,2.79-2,1.86,.03-.51-.07-1.78,.48-1.86-.03Z"/><path class="cls-2" d="M326,324.72c.01-.17,1.01-.36,1.25-.42-.78,.49-1.32,1.26-2.08,1.41,.79-.49,.55-.61,.82-.99Z"/><path class="cls-2" d="M342.25,314.92c0,.51-3.21,3.04-5.22,4.37,1.76-1.43,3.5-2.89,5.22-4.37Z"/><path class="cls-2" d="M357.63,305.86c1.42-.69,1.22-.26-.44,1.01-.25-.08,.22-.59,.44-1.01Z"/><path class="cls-2" d="M358.04,304.33c1.15-.93,1.88-1.19,2.59-1.47-.26-.23-2.54,2.32-2.59,1.47Z"/><path class="cls-2" d="M386.89,278.37c.59-.74,1.61-2.53,2.53-2.92-.87,.56-2.52,3.87-2.53,2.92Z"/><path class="cls-2" d="M397.38,263.5c.35-.48,.54-.64,.82-1.27,.75-.8,.38,.32-.09,1.11l-.73,.16Z"/><polygon class="cls-2" points="240.07 50.84 242 50.67 241.72 51.07 240.07 50.84"/><path class="cls-2" d="M105.95,93.17c-1.43,1.34-1.33,.47-1.63,.61,1.41-1.05-.22,.78,1.63-.61Z"/><polygon class="cls-2" points="62.03 155 62.22 154.46 62.95 154.93 62.03 155"/></g></svg>