<?xml version="1.0" encoding="UTF-8"?><svg id="Layer_1" xmlns="http://www.w3.org/2000/svg" viewBox="0 0 496 426"><defs><style>.cls-1{fill:#fdfff4;}.cls-2{fill:#6FA764;}</style></defs><path class="cls-1" d="M106,245s-47,56-40,66,55-18,71-18,61,48,152,26,157-70,139-160S274,49,188,77s-104,118-82,168Z"/><g><path class="cls-2" d="M105.59,247.9c2.28-3.06-1.87,1.11,1.34-2.12-.07,.61-.35,1.33-1.34,2.12Z"/><path class="cls-2" d="M102.77,232.75c-2.73-5.57-4.12-12.67-4.69-19.91-.61-7.27-.38-14.66-.55-21.44,.04-1.58,1.1,.49,1.16-3.07-.25-6.56,.97-15.01,3.55-23.42,2.55-8.42,6.49-16.74,10.64-23.47l-.11,1.01c.73-1.31,1.39-2.84,1.98-4.44,.3-.8,.61-1.6,.94-2.38,.35-.77,.76-1.49,1.21-2.15,.2,.09-.26,1.03,.39,.56-.16-1.03,2.71-5.09,3.13-6.43,.93-.89,1.3-.49,2.45-1.66,.14-.64,.26-1.31,.43-1.94,.41-1.27,1.1-2.53,1.95-3.78,.43-.62,.89-1.25,1.39-1.88,.53-.6,1.09-1.2,1.66-1.81,1.16-1.2,2.31-2.49,3.52-3.73,1.22-1.24,2.4-2.54,3.45-3.96-.11,.37-.49,.96,.02,.68,.84-1.13,1.85-2.16,2.86-3.24,1.02-1.07,2.06-2.18,3.17-3.25,1.15-1.03,2.33-2.07,3.52-3.12,.6-.52,1.2-1.06,1.82-1.57,.64-.49,1.28-.98,1.92-1.47,1.29-.98,2.6-1.96,3.9-2.95,1.36-.91,2.72-1.82,4.08-2.72,.68-.45,1.36-.91,2.03-1.36,.7-.41,1.39-.83,2.09-1.24,1.38-.83,2.75-1.65,4.1-2.46-.31,.48-.48,1.14,.3,1.05,.13-1.06,3.56-2.89,6.51-4.54,.84,0,2.11-.69,3.62-1.59,1.53-.88,3.31-2,5.25-2.48l-.25,.28c2.46-1.8,4.26-.99,6.16-2.77,.65,0,1.3-.02,1.96,.01,.88-1.5,4.21-.7,6.36-1.92l-.14-.21c2.11-.92,3.42-.63,5.4-1.38l.23,.08c4.72-1.52,7.68-1.49,7.36-2.36,1.85,.32-4.6,1.39-1.71,1.81,15.58-4.63,32.36-6.58,48.68-7.32,1.87,.3,3.05,.37,3.48,.7,1.62-.24,6.13-.31,7.61-.76-.55,.02,1.06,.46,1.92,.51,2.96,.35,3.26-.97,6.52-.5-1.31,.2-1.75,.5-1.32,.84,2.8-.65,6.51-.4,9.81-.44-.52,.13-1.32,.18-1.21,.47,3.64-.61,6.53,.57,9.71,.34l-1.22,.42c4.99,1.06,1.59-.97,5.93-.16-1.07,.06-.72,.3-.93,.49,4.17-.55,10.73,.61,14.81,.98-.25,.03-.21,.18-.21,.18,4.43,.59,8.95,1.72,13.83,2.38,1.69,.63-.84,1.08,3.78,1.98,.09-1.11,7.86,1.54,5.47-.3,3.88,1.19,9.88,3.39,12.53,3.95-1.85-.19,1.46,1.84-1.74,.87l2.19,1.4c-.49,.29-2.41-.95-1.82-.19,1.6,.46,6.32,1.68,7.65,2.38,3.1,.5,6.23,.39,10.91,2.34-2.34-.58,.76,1.6-.79,1.12,1.21,.15,2.41,.35,3.61,.55,1.2,.2,2.42,.39,3.62,.63,1.53,.72-.05,.91,2.25,1.76,.02-.31,1.04,.03,1.8,.19,.25,.21,1.84,.96,3.35,1.89,1.51,.94,2.97,1.96,3.01,2.6,.43,.72-2.47-1.2-1.06,.05,1.33,.79,2.06,1.15,2.8,1.5,.74,.35,1.48,.69,2.77,1.56l-.03,.15c1.64,1.22,5.23,3.08,3.74,1.32-1.15-.86,.09,.82-1.48-.64,1.53,.32,4.62,2.3,7.1,4.23-.96-.52-1.02-.22-1.54-.25,3.83,1.91,7.47,4.6,11.1,7.68,.39-.31-1.9-.57-2.23-1.23,1.98,2.32,4.37,4.33,6.54,6.43,.54,.53,1.07,1.05,1.6,1.56,.51,.53,.98,1.07,1.44,1.61,.46,.54,.89,1.09,1.28,1.63,.37,.56,.71,1.14,1,1.71-.58-.6,.28-.79,.2-.65,1.76,2.36,1.08,2.69,2.4,4.09-.23,.39,1.5,1.87,2.66,3.48,.81,.69,.11,.54-.86-.87,.44,.53,1.2,1.46,2.08,2.71,.84,1.26,1.91,2.77,2.84,4.48,2,3.35,3.74,7.37,4.63,10.44,.19-.22,2.37,3.31,2.73,4.76l-.79-.35c.02,.7,.41,1.86,.73,2.9,.3,1.05,.51,1.98,.27,2.17,.76,1.41-.09-1.48-1.19-4.14-.27-.67-.53-1.32-.76-1.9-.25-.57-.47-1.07-.63-1.43-.3-.71-.34-.87,.17,.07-.07,1.16,2.81,5.26,1.71,4.66,.87,2.79,2.29,5.39,2.27,8.27-.08-.82-1.39-2.12-.84,.16,.91,4.02,.53,1.09,1.34,4.33l.62,2.02c.65,.04,.55,3.65,.98,2.03-.37,.56,1.06,5.94-.01,5.63l-.89-.47c.27,1.75,1.22,2.79,1.73,4.16-.06,.24-.2,.72-.34,.65,1.28,.19,.16,4.27,1.27,6.34-.34,3.78,.09,9.6-.9,11.34,.11,1.45,.24,2.85,.28,4.3,.02,1.45-.16,2.93-.48,4.57-.04-.67,.03-1.57-.21-1.79-.62,2.02-.35,2.56-.37,4.47-.05-.43-1.46,3.98-2.31,6.13-.06,1.45,.05,1.96,.28,2.16,.23,.2,.54,.1,.7,.28-.93,1.14-1.24,3.15-1.56,5.27-.36,2.1-.9,4.27-1.92,5.67,.15-1.01,.72-4.18-.32-2.01-1.01,1.04-1.14,2.38-1.4,3.9-.27,1.52-.56,3.27-1.62,5.12l1.34-.57c-.33,.38-.6,.95-.84,1.57-.26,.62-.53,1.28-.76,1.88-.46,1.2-.85,2.11-1.23,1.68-.14,.72-.76,1.82-1.21,2.73-.5,.88-.82,1.6-.26,1.63-1.06,1.43-2.04,3.1-3.08,4.8-1.08,1.68-2.19,3.4-3.25,5.05-2.29,3.17-4.47,6.04-6.59,7.06-.51,.87-2.23,2.67-1.51,2.61,1.49-.91,1.17-2.04,1.86-2.26-.55,.71-.46,1.03-.42,1.19-1.57,1.52-2.71,2.77-2.04,.66-.44,.41-.8,.79-1.11,1.15-.32,.35-.58,.68-.8,1.01-.44,.66-.73,1.29-1.04,1.95-.64,1.32-1.3,2.88-3.69,4.84-.09-.49-.54-.28-1.78,1.01-.66,.95-1.28,1.95-2,2.85-3.11,2.48-2.32,.76-2.86,.3-.75,.73-1.62,1.52-2.34,2.24-.72,.73-1.36,1.34-1.56,1.85l-2.55,.88c1.85-.64-1.09,1.4-1.76,2.15l.67-.75c-.47,.03-2.31,1.59-3.26,2.37,.48,.17,2.64-1.07,3.76-1.85-.64,.94-2.06,1.83-3.01,2.97-.03-.85-3.06,1.62-4.5,2.49-1.69,.92-1.46,1.7-1.95,1.99-.24-.27-2.66,1.67-1.68,.42,.48-.45,1.44-.52,2.17-1.38-1.21,.47-1.42-.14-3.36,1.68-1.48,1.35,1.18,.93-2.26,2.49,.76-.65,.77-.98,1.29-1.58l-3.19,1.49,.2,.62c-.49,.11-.24-.11-.47-.07-.28,.55-1.4,1.28-2.49,2.01-1.11,.7-2.2,1.36-2.36,1.88-1.53,.9-3.47,1.42-5,2.14l.26-.19c-2.01,.6-4.34,2.04-5.7,3.2l.02-.17c-1.01,.49-3.4,1.66-4.52,2.6-2.79,.76-1.86-1.77-4.37,.27-2.63,1.14-3.69,2.82-2.46,2.74-2.47,.82-4.95,2.04-7.47,3.08-2.5,1.07-4.99,2.06-7.42,2.38-.61,.49-.12,.48-1.51,1.14-3.61,1.21-7.37,2.57-10.98,3.84-3.63,1.17-7.11,2.19-10.19,2.4,2.04-.84-.03-.65-.17-.98-1.59,1.03-2.25,.01-2.62,1.12,.33,.5,.23,.82,2.35,.47-2.14,.74-4.86,1.61-7.39,2.23-2.53,.61-4.83,1.06-6.11,1.11,1.28-.05,.38,.36-.54,.77,.11-.94-3.18-.33-5.59,.52l-.23,.62-1.73-.2c-.92,.36-.81,1.42-3.41,1.34-.17-.19-.35-.37-.84-.45-2.5,.9-6.03,2.38-8.95,2.26l-2.43-.48c-1.19,.26-3.17,1.03-1.01,.96-2.45,.12-4.47,.1-6.07,.12-1.6,0-2.78-.07-3.58-.36-2.06,.55-4.38,1.01-6.85,1.4-2.47,.32-5.11,.52-7.78,.67-2.68,.03-5.41,.09-8.08-.05-2.67-.17-5.28-.27-7.73-.59l.33-.38c-2.59-.65-1.44,.58-3.25,.11,.89-.31-1.9-1.06,.21-1.33-3.68-.84-4.89,.07-7.37-.06-.45,.49,2.01-.07,1.44,.55-.22,.05-1.51-.19-2.81-.46-1.31-.26-2.64-.45-3.01-.1-.88-.49-.04-.95,.52-1.19h-2.35c-2.56-1.45,6.61-.58,3.92-2.27l-2.09-.24c-1.79-1.2,5.59,.01,.51-1.2-2.3,.03-4.45,.73-2.53,1.53-2.35-.39-2.99-.03-3.68,.29-.68,.3-1.42,.63-3.92-.06-.63-.41,.38-.18,1.45,.03,1.07,.2,2.2,.35,1.79-.08-2.22-1.15-4.82-.81-6.87-1.56,2.25,.88,.06,1.24-1.48,.92-2.43-1.11,1.85-.27-1.7-1.4-.72,.29-4.14-.34-1.37,.81-1.63,.68-3.63-1.47-5.84-1.29-.91-1.09,4.21-.47,.44-2.1,.37,.94-5.09-.76-3.41,1-1.45-.75-1.41-1.34-.15-1.37-2.01-1.16-5.69-.75-5.86-2.36l-1.01,.4c-.57-.5-1.45-1.07-2.37-1.9-1.86-.76-6.35-1.71-5.72-2.65-.63-.17-4.76-2.17-3.49-.71,2.39,1.65,3.2,.89,4.23,2.5-1.5-1.6-3.79-1.65-5.42-2.09l-.05-.51c-.96-.28-2.95-1.37-3.71-1.22,.79,.11,.57-.33-.08-.78l-1.21,.13c-3.7-1.52-.31-1.46-3.82-3.06l2.83,.89c-.63-.19-1.5-1.35-3.22-2.02-.92,.21-2.43,.23-3.2,.36-2.03-.77-.54-1.06-2.69-1.48l2.78,.64c.46,.02-1.19-1.76-3.72-3.06-1.71-.65-4.57-1.1-2.2,.46-1.26-.63-2.82-1.79-1.64-1.71-2.89-1.16,.06,.72-2.47-.03-.82-.87-3.56-2.62-4.95-3.45,.39-.07,.78-.19,1.23-.23l1.38-.08c-.54-.17-1.11-.4-1.63-.52,1.15-.1,.96-.29,.6-.59-.34-.28-.83-.53-.1-.81-.29-.1-.6-.17-.92-.24-.32-.07-.65-.11-.96-.07l-.91,.07c-.31,.07-.61,.12-.9,.2,.89,.29,1.02,.61,.87,.86-.17,.26-.67,.5-1.24,.78-1.16,.56-2.63,1.31-2.02,1.83-2.25,.63-3.22,.15-4.15-.19-.94-.31-1.89-.43-4.16,1.34,.94,.04-1.17,1.72,1.79,.39-3.08,.85-1.66,1.84-5.41,2.62,2.5-1.45-3.3-.16,.31-2.25-.12,.48,2.27-.46,2.82-.77-1.42-.02-.14-1.3-3.31-.19-1.89,.8-4.52,1.82-3.91,2.28,.33,.64,2.91-1.17,1.93-.03-3.73,1.66-4.77,.91-5.9,2.7,2.39-1.03,3.25-.57,3.38-.09l-2.7,1.36,.37-.66c-4.63,1.44-1.01,1.32-5.43,2.93l-2.4-.06c.75-1.17,6.51-2.18,5.25-3.1-2.87,1.07-3.56,2.07-6.39,2.82,.56-.34,1.37-.7,1.92-1.04-1.04,.36-2.7-.85-6.42,1.7-1.97,1.2-.39,.66-.26,1.14-4.58,1.93-5.81,2.93-8.84,4.1,.32-1.11-5.47,1.79-2.39-.3,1.77,.02,8.55-2.56,9.84-4.07-2.09-.41,3.69-1.26,4.25-2.73-3.7,1.43-3.94,.31-4.8-.15-1.04,.35-1.93,1.02-2.5,1.36-.19,.81,1.15,.29,1.49,.93-4.2,1.42-8.11,3.23-10.26,4.65-1.54,.15-1.3-.66,.36-1.28-2.49,.95-5.13,1.8-7.83,2.45-2.7,.64-5.46,1.11-8.25,1.08,.9,.25,.99,.4,.61,.51-.39,.1-1.13,.19-2.33,.11-2.24-.05-4.45-1.12-3.16-.09,.93,.39,1.88,.66,2.76,.87,.44,.09,.86,.21,1.24,.28,.41,.07,.59,.15,.85,.22,.88,.27,1.17,.58,.26,.87-2.2-.07,.09-.49-.82-.73-1.78,.27-3.22-.21-4.38-.8-1.18-.63-2.18-1.28-3.71-2.12,1.43,1.31,2.57,1.52,3.09,1.61,.56,.04,.63-.14,.54-.39-.2-.48-.81-1.34-.04-1.46-1.08-.36-1.51-.75-1.69-.92-.16-.2-.07-.25,.02-.31,.1-.06,.21-.13,.11-.36-.05-.12-.16-.26-.31-.51-.17-.23-.36-.55-.59-1-.55-.86-.84-1.94-.92-3.11,0-.3-.02-.59-.02-.89,.02-.3,.04-.61,.05-.92,.01-.31,.07-.63,.11-.94,.03-.27,.07-.54,.12-.8,.38-2.13,1.05-4.15,1.78-6,2.79-4.2,5.91-10.96,8.27-14.64,1.61-1.66,1.61,.17,3.11-1.78,1.58-2.4-2.09,1.17,.67-2.11l-.06,.45c.51-1.22,4.98-6.03,4.56-7.88l.12,1.7c.54-.59,.77-1.33,1.05-1.93,.3,.18,1.11-.38,.54,.8,2.13-1.69,3.13-4.52,4.81-6.81l-1.61,1.09c2.51-4.22,5-6.43,7.72-10.28l.41,.5,1.43-2.44c.06,.91,1.95-.86,2.48-2.33l-3.29,6.67c-1.53,1.37,.76-2.21-.51-1.59-1.09,.51-3.63,4.08-3.57,5.01,1.07-1.28,1.01-1.43,1.62-2.59,1.03,.1-.54,2.08-.84,3.43,.5-.71,1.47-1.54,1.36-1.85-.7,1.62-1.7,3.03-3.39,5.32,.89-1.75-1.06,.52-.82-.22,.48,.65-.96,2.96-3.2,5.68-2.2,1.52-3.39,5.7-5.87,8.92,.28-1.8,.97-3.9,2.15-6.12-1.8,1.87-1.63,2.35-3.41,4.25-.22,1.36,.01,2.59-1.52,5.56l-.58-.16c-1.39,2.71-.68,3.15-2.79,6.33-1.8,2.73-3.46,5.6-4.8,8.36-.67,1.38-1.25,2.74-1.71,4.03-.23,.65-.42,1.27-.59,1.88-.06,.26-.12,.52-.18,.78-.04,.23-.09,.46-.12,.68-.2,.05-.4,.11-.6,.17,.26,.54,.41,1.2,.75,1.87,.33,.68,.98,1.28,1.77,1.6,.79,.32,1.66,.43,2.48,.42,1.02,0,2.07-.16,2.92-.41,3.03-.13,6.34-1.16,9.22-2.14,2.89-.98,5.41-1.91,7.12-2,10.48-4.26,19.39-8.69,30.73-12.46l-1.61,1.45c1.8-1.29,1.46-.01,3.4-.8-2.49,.13,2.46-1.76,3.8-2.64,2.7-.43,5.66-1.24,8.95-1.62,.82-.11,1.74-.07,2.65-.04,.87,.06,1.66,.21,2.46,.33,.75,.17,1.47,.33,2.17,.48,.67,.18,1.31,.36,1.91,.53l-.04,.6c5,.98,9.53,4.57,14.61,7.4,.48,.52,1.17,1.5,2.74,2.23,3.24,.6,4.67,1.43,9.08,2.87,1.51,.73,3.49,1.67,5.46,2.67,1.99,.95,3.96,1.98,5.48,2.75,6.1,1.72,12.12,3.64,18.3,5.27,6.18,1.62,12.51,2.92,18.99,3.45l.84,.8c6.35,.12,13.32,.71,20.12,.78,6.79,.11,13.38-.05,18.71-.98l-.93,1.25c1.7,0,3.63-.26,5-.62,1.37-.37,2.18-.89,1.7-1.22,1.7-.06,3.78-.49,5.71-.83,1.93-.35,3.7-.71,4.85-.42,1.73-.2,2.75-.53,3.69-.88,.93-.37,1.78-.8,3.17-1.19,3.43-.53,5.78-.95,8.07-1.56,2.28-.6,4.51-1.17,7.66-2.18l-1.59,.37c-.63,.44-.57,.93,1.04,.56,2.29-.97,8.83-2.12,6.08-2.79,7-1.22,15.49-5.39,22.24-6.79-.68-.16,.92-.81,1.52-1.29,2.86-1.13,5.88-2.06,8.69-3.1,2.79-1.09,5.46-2.11,7.54-3.44,.97-.24-1.15,1.24,1.14,.22,1.29-.75-.17-.46,1.39-1.42,8.68-4.79,18.26-8.41,25.72-13.51,6.49-4.67,12.93-9.62,18.84-15.01,5.88-5.4,11.23-11.23,15.62-17.33l.12,.3c.27-.59,.59-1.16,.95-1.73,.37-.56,.77-1.13,1.14-1.72,.78-1.16,1.67-2.31,2.52-3.44,.89-1.11,1.57-2.32,2.18-3.44,.59-1.13,1.03-2.24,1.16-3.29,.74-.94,2.06-4.02,2.16-3,.24-.99,.79-2.06,1.28-3.3,.51-1.23,1.12-2.54,1.76-3.92,.68-1.36,1.15-2.86,1.65-4.34,.46-1.49,.92-2.95,1-4.43-.16,.51-.17,.82-.22,1.45,.51-1.37,.92-2.74,1.28-4.1,.17-.68,.34-1.36,.51-2.04,.15-.68,.24-1.38,.36-2.07,.22-1.38,.45-2.78,.72-4.2,.27-1.42,.43-2.9,.77-4.42,.04,.64,0,1.79,.24,2.01,.81-2.35-.45-5.77,.88-6.99,.06-1.38-.61-1.03-.62-.18,.16-1.7,.31-3.41,.42-5.14,0-1.74,0-3.49,0-5.24,.03-1.76-.13-3.53-.27-5.3l-.22-2.66c-.07-.89-.14-1.78-.29-2.66-.52-3.55-1-7.11-1.81-10.63-.71-3.56-1.47-6.99-2.51-10.32-.22-1.24-.38-2.18-.5-2.89-.11-.72-.14-1.22-.13-1.57,.02-.7,.23-.78,.41-.78,.34,.01,.64,.3-1.23-3.28,.01-.71-.64-.26-.42-.46-1.48-2.7-.47-5.04-2.06-6.7-.36,1.16-1.02-1.1-1.5-.92-.6-1.42-1.05-2.59-1.44-3.59-.42-.98-.77-1.81-1.12-2.59-.34-.79-.75-1.49-1.25-2.25-.51-.75-1.07-1.58-1.93-2.48l.57,.06c-2.15-2.02-4.09-4.43-6.16-6.59-.51-.54-1.02-1.08-1.52-1.6-.53-.5-1.05-.99-1.58-1.45-1.03-.94-2.13-1.72-3.22-2.33-11.14-11.09-24.62-19.26-38.78-25.41-14.21-6.14-29.19-10.29-44.53-13.16-15.15-3.02-30.49-4.36-45.88-4.5-15.39-.13-30.85,.94-46.43,3.09-1.86,.03-3.3,.07-4.52,.13-1.22,.08-2.24,.19-3.26,.34-1.03,.15-2.06,.39-3.33,.7-1.27,.31-2.77,.73-4.72,1.3,.28-.25,.76-.41,.2-.45-.19,.97-5.53,1.42-6.05,2.49-5.61,1.4-11,2.99-16.14,4.98-1.29,.49-2.62,.91-3.89,1.47-1.28,.55-2.56,1.11-3.85,1.66-2.62,1.05-5.13,2.41-7.77,3.68,1.62-.9,2.13-2,.16-.97l-1.81,1.55-.45-.05c-1.25,.87-2.46,2.07-.96,1.57l-4.72,2.8-4.56,3.02c-1.55,.95-2.97,2.1-4.45,3.15l-2.2,1.6c-.73,.53-1.41,1.13-2.12,1.69-1.39,1.16-2.85,2.23-4.2,3.44l-4.04,3.62c-2.58,2.53-5.19,5.03-7.55,7.76-4.81,5.38-9.21,11.15-12.93,17.35-3.72,6.2-6.86,12.75-9.31,19.54-1.39,3.15-2.68,7.12-3.7,11.23-1.03,4.11-1.8,8.36-2.31,12.06-.29,1.35-.58,2.7-.87,4.04-.23,1.35-.45,2.7-.67,4.03l-.33,2.01-.23,2.01c-.15,1.34-.32,2.67-.45,4.01-.41,5.34-.55,10.66-.21,15.97,.68,10.59,3.01,21.23,7.82,31.32,0,0-.82-.43-2.16-1.94-.66-.76-1.51-1.78-2.28-3.22-.79-1.43-1.74-3.2-2.47-5.47Z"/><path class="cls-2" d="M102.76,251.51c-.88,.34-2.74,2.27-1.9,.22,.51,.07,1.75-.7,1.9-.22Z"/><path class="cls-2" d="M63.3,312.61c.12,.07,.76,1.28,.98,1.56-1-.84-1.97-1.78-2.11-2.9,.53,1.24,.68,.93,1.13,1.34Z"/><path class="cls-2" d="M84.2,314.29c-.14,.49-3.97,1.94-6.47,2.44,2.27-.71,4.4-1.55,6.47-2.44Z"/><path class="cls-2" d="M101.13,310.1c1.51-.21,1.2,.12-.67,.83-.22-.15,.36-.5,.67-.83Z"/><path class="cls-2" d="M101.92,308.78c1.32-.53,2.07-.56,2.8-.59-.18-.31-2.98,1.41-2.8,.59Z"/><path class="cls-2" d="M135.86,298.46c.32-.04,.85-.19,1.23-.19,.16,.01,.33,.03,.47,.06,.07,.02,.13,.04,.2,.08,.08,.06,.15,.12,.21,.19-.06-.05-.17-.12-.26-.13-.08,0-.18,0-.28,0-.21,.02-.38,0-.7,.08-.56,.11-1.08,.24-.86-.1Z"/><path class="cls-2" d="M149.21,302.67c.47,.27,.64,.45,1.26,.64,.81,.64-.28,.41-1.05,.05l-.2-.69Z"/><polygon class="cls-2" points="426.8 228.12 426.28 229.97 426 229.56 426.8 228.12"/><path class="cls-2" d="M394.78,100.11c-1.63-1-.79-1.14-1-1.38,1.37,1.04-.8,0,1,1.38Z"/><polygon class="cls-2" points="326.5 70.93 327.05 71.05 326.67 71.83 326.5 70.93"/></g></svg>