<?xml version="1.0" encoding="UTF-8"?><svg id="Layer_1" xmlns="http://www.w3.org/2000/svg" viewBox="0 0 496 426"><defs><style>.cls-1{fill:#fdfff4;}.cls-2{fill:#3f99b6;}</style></defs><path class="cls-1" d="M394,221c-6-4,3-24-17-62-19.55-37.15-67-96-170.5-87.5C86.7,81.34,48.5,179.5,53.5,230.5s59,112,110,119,133.44,15.56,190-41c15.5-15.5,21.5-33.5,27.5-34.5,18.09-3.02,65.14-13.58,61.5-24.5s-48.5-28.5-48.5-28.5Z"/><g><path class="cls-2" d="M391.07,219.6c.52,1.09,.95,1.43,1.04,1.44,.11,.01-.06-.27-.14-.53-.09-.26-.18-.47-.09-.31,.12,.13,.24,.79,1.44,1.8-.35-.09-.86-.22-1.27-.63-.22-.2-.44-.44-.59-.74-.19-.3-.32-.64-.4-1.03Z"/><path class="cls-2" d="M405.42,227.05c6.13,1.57,12.7,4.69,19.14,8.34,3.21,1.83,6.4,3.78,9.42,5.83,1.52,1.01,2.98,2.09,4.38,3.19,1.4,1.11,2.72,2.26,3.81,3.74,.49,.77,.03,.72-.16,.98-.1,.1-.13,.26-.1,.57,.01,.31,.13,.78,.09,1.54,0,1.54-1.04,2.99-2.36,4.28-1.36,1.29-3.01,2.42-4.79,3.42-3.58,2.02-7.68,3.62-11.92,4.98-8.51,2.71-17.66,4.45-25.65,5.6l.88-.54c-3.04,.45-6.47,2.32-9.7,2.8-.07-.21,.96-.51,.16-.66-.67,.83-5.71,1.41-6.99,2.12-.2,0-.39-.02-.52-.06-.49-.05-.81-.15-1.22-.18-.41-.02-.93,0-1.73,.42-.54,.68-.85,1.35-1.14,1.99-1.23,2.58-2.9,5.13-4.89,7.92-1.95,2.78-4.09,5.71-5.68,8.9,.04-.38,.32-1.04-.14-.67-2.7,5.01-6.34,10.33-10.77,15.22-1.1,1.23-2.26,2.41-3.46,3.57-1.18,1.16-2.37,2.33-3.55,3.49-1.23,1.1-2.46,2.21-3.68,3.3-.61,.55-1.21,1.09-1.81,1.64-.62,.52-1.24,1.03-1.86,1.54,.24-.52,.3-1.19-.48-.98,0,.51-.74,1.4-1.82,2.45-.54,.52-1.15,1.1-1.81,1.65-.68,.53-1.38,1.08-2.06,1.61-.87,.11-1.96,1.1-3.29,2.32-1.37,1.15-3,2.5-4.82,3.39l.19-.34c-1.02,1.18-2.06,1.61-3.01,2.03-.95,.42-1.83,.82-2.63,1.87-.66,.12-1.3,.25-1.96,.35-.63,1.62-4.11,1.42-6.03,3.04l.18,.18c-1.99,1.22-3.34,1.18-5.21,2.25l-.24-.04c-4.52,2.22-7.49,2.68-7.05,3.48-1.89-.03,4.41-2.11,1.46-2.07-7.49,3.43-15.49,6.08-23.65,8.06-8.17,1.98-16.49,3.3-24.75,4.21-1.92-.16-3.12-.15-3.57-.45-1.63,.33-6.2,.68-7.67,1.23,.55-.05-1.1-.41-1.97-.41-3.03-.18-3.24,1.19-6.58,.87,1.31-.28,1.75-.59,1.3-.91-1.4,.39-3.05,.6-4.76,.73-1.71,.1-3.49,.14-5.17,.27,.52-.16,1.33-.25,1.2-.54-1.82,.43-3.49,.36-5.1,.26-1.61-.1-3.16-.22-4.77-.03l1.21-.49c-5.13-.8-1.55,1.05-6,.52,1.08-.12,.71-.34,.91-.55-4.19,.78-10.91,.1-15.07,.06,.25-.05,.2-.2,.2-.2-4.53-.22-9.19-.98-14.19-1.09-1.77-.43,.73-1.2-4.04-1.55,.05,1.09-8.11-.55-5.45,.98-4.05-.7-10.38-1.87-13.16-2.01,1.89-.09-1.76-1.6,1.6-1.12l-2.41-1.05c.44-.36,2.55,.58,1.84-.09-.83-.13-2.47-.25-4.08-.49-1.6-.28-3.18-.59-3.89-.84-1.59-.08-3.15-.09-4.96-.2-.91-.04-1.84-.23-2.88-.43-1.03-.23-2.16-.47-3.37-.93,2.39,.52-.85-1.59,.73-1.15-2.43-.29-4.93-.52-7.37-.98-1.58-.69,.02-.91-2.35-1.72-.01,.32-1.04-.04-1.82-.19-.26-.21-1.88-.97-3.44-1.87-1.54-.95-3.02-2-3.08-2.63-.44-.73,2.52,1.21,1.07-.06-2.74-1.55-3-1.4-5.68-3.06l.03-.15c-1.67-1.24-5.31-3.12-3.78-1.34,1.18,.86-.1-.83,1.5,.65-.77-.17-1.94-.75-3.25-1.51-1.31-.75-2.69-1.79-3.97-2.73,.97,.52,1.03,.22,1.55,.25-.97-.48-1.95-.99-2.91-1.54-.94-.58-1.89-1.19-2.83-1.82-1.92-1.24-3.74-2.69-5.67-4.12-.38,.32,1.94,.5,2.3,1.15-2.11-2.23-4.56-4.21-6.91-6.14-2.28-1.99-4.49-3.91-5.84-6.13,.63,.55-.2,.81-.14,.67-1.97-2.2-1.38-2.56-2.84-3.82,.19-.42-1.69-1.72-3.1-3.12-.88-.59-.19-.51,.99,.74-.53-.45-1.39-1.3-2.43-2.41-1.03-1.12-2.32-2.44-3.54-3.96-2.51-2.99-5.09-6.52-6.62-9.33-.14,.25-3.07-2.67-3.8-3.96l.85,.14c-.38-1.34-2.65-4.15-2.3-4.65-.55-.58-.44-.23,.06,.55,.5,.77,1.35,1.98,2.19,3.14,1.68,2.34,3.43,4.45,1.98,2.87-.19-1.17-4.04-4.41-2.82-4.11-1.61-2.46-3.62-4.61-4.5-7.35,.31,.77,1.96,1.64,.75-.4-2.05-3.63-.83-.9-2.6-3.8-.42-.58-.8-1.19-1.19-1.79-.63,.15-1.55-3.42-1.51-1.71,.19-.66-2.81-5.46-1.67-5.48l.99,.21c-.39-.81-.88-1.41-1.39-1.95-.49-.55-.99-1.04-1.42-1.65-.01-.25-.03-.76,.13-.72-.64,.09-1.01-.94-1.43-2.19-.38-1.27-.78-2.78-1.59-3.66-.1-.47-.23-.97-.36-1.49l-.39-1.61c-.29-1.09-.58-2.21-.86-3.27-.48-2.14-.81-4.06-.64-5.02-.94-2.81-1.91-5.42-2.01-8.84,.2,.66,.36,1.57,.65,1.73,.13-2.15-.35-2.62-.66-4.54,.23,.41,.38-4.29,.88-6.61-.42-2.9-1.09-1.92-1.51-2.21,.65-1.34,.53-3.39,.39-5.56-.06-2.15-.09-4.41,.61-6.02,.08,1.03,.26,4.29,.77,1.91,.7-1.27,.64-2.6,.54-4.16-.1-1.56-.32-3.36,.38-5.42l-1.2,.87c.96-1.78,.49-6.36,1.49-5.72-.06-1.48,1.41-4.87,.33-4.63,1.24-3.34,2.2-7.52,3.42-11.28,.3-.94,.57-1.87,.9-2.74,.33-.87,.67-1.69,1.02-2.45,.7-1.52,1.4-2.8,2.22-3.63,.22-.99,1.33-3.25,.66-2.97-1.15,1.34-.51,2.31-1.1,2.75,.31-.85,.13-1.13,.04-1.27,1.04-1.95,1.76-3.5,1.75-1.28,1.2-2.12,1.27-3.44,1.46-4.91,.19-1.47,.37-3.14,1.9-5.85,.25,.43,.6,.09,1.37-1.55l.95-3.39c2.06-3.46,1.94-1.53,2.59-1.29,.95-1.91,2.28-4.15,2.31-5.26,.69-.59,1.43-1.15,2.13-1.72-1.56,1.25,.58-1.7,.97-2.64l-.39,.94c.47-.16,1.6-2.36,2.25-3.42-.56-.03-2.04,2.01-2.9,3.1,.34-1.08,1.28-2.5,1.81-3.9,.3,.78,2.42-2.57,3.46-3.92,1.24-1.51,.79-2.15,1.16-2.59,.32,.18,2.02-2.48,1.47-.97-.32,.59-1.22,.99-1.64,2.04,1.01-.86,1.41-.36,2.69-2.73,.97-1.79-1.39-.44,1.31-3.18-.49,.9-.39,1.22-.67,1.98,.83-.86,1.63-1.74,2.52-2.54l-.38-.52c.44-.26,.26,.02,.47-.09,.19-1.23,3.41-4.26,3.39-5.37,1.21-1.36,2.96-2.45,4.2-3.65l-.19,.28c.87-.62,1.71-1.52,2.53-2.37,.81-.86,1.53-1.76,2.03-2.52l.02,.17c.89-.73,2.75-2.73,3.63-3.91,2.54-1.52,2.31,1.17,4.23-1.49,1.12-.95,1.8-1.93,2.09-2.58,.3-.65,.16-1.02-.44-.82,2.26-1.43,4.42-3.27,6.61-5.01,2.26-1.63,4.54-3.17,6.85-4.13,.5-.64,0-.51,1.28-1.45,1.71-.95,3.43-1.99,5.13-3.05l1.28-.8,1.31-.73c.88-.48,1.75-.96,2.61-1.44,1.74-.91,3.4-1.88,5.09-2.53,1.68-.67,3.31-1.23,4.85-1.58-1.95,1.18,.12,.64,.31,.95,1.46-1.28,2.26-.38,2.48-1.55-.39-.45-.33-.78-2.42-.08,2.03-1.16,4.77-2.24,7.26-3.19,1.25-.47,2.45-.9,3.5-1.23,1.05-.32,1.98-.48,2.63-.57-1.31,.15-.42-.32,.49-.8-.03,.96,3.26,.03,5.62-1.08l.19-.65c.59,0,1.18,.02,1.78,.07,.91-.43,.74-1.4,3.37-1.56,.18,.17,.39,.34,.88,.37,1.23-.57,2.72-1.28,4.26-1.89,1.56-.55,3.19-.96,4.66-1.04l2.49,.3c1.19-.34,3.15-1.26,.96-1.03,2.47-.32,4.51-.45,6.13-.55,1.62-.09,2.82-.09,3.65,.13,1.02-.38,2.1-.74,3.24-1.09,1.14-.31,2.34-.57,3.57-.83,2.47-.51,5.1-.96,7.78-1.35,2.69-.28,5.42-.5,8.11-.69,2.68-.2,5.33-.16,7.81-.22l-.28,.42c2.67,.32,1.37-.76,3.24-.52-.86,.4,2.03,.86-.06,1.35,3.79,.48,4.9-.65,7.39-.8,.39-.54-2,.32-1.51-.37,.22-.09,1.53,.03,2.87,.08,1.34,.06,2.7,.11,3.02-.29,.94,.38,.17,.94-.36,1.25l2.35-.27c2.77,1.12-6.54,1.36-3.62,2.71h2.13c1.96,.97-5.62,.65-.35,1.24,2.31-.28,4.37-1.36,2.33-1.84,4.83,.05,2.37-1.89,7.58-1.32,1.38,.62-4.18-.29-3.24,.48,2.39,.9,4.95,.11,7.1,.56-2.39-.54-.25-1.19,1.35-1.15,2.6,.76-1.81,.53,1.92,1.14,.68-.39,4.18-.25,1.24-1,1.51-.85,3.88,.79,6.04,.37,1.08,.97-4.12,1.02-.1,2.15-.53-.84,5.22-.04,3.26-1.51,1.58,.51,1.63,1.1,.37,1.33,2.2,.81,5.82-.15,6.26,1.44l.95-.55c.66,.4,1.64,.82,2.7,1.48,1.98,.53,6.66,.79,6.17,1.81,.68,0,5.12,1.53,3.64,.22-2.65-1.39-3.38-.41-4.66-1.89,.88,.69,1.9,.94,2.92,1.06,1.01,.15,2.02,.14,2.88,.27l.13,.5c1.01,.15,3.2,.96,3.95,.71-.82,0-.53,.39,.19,.76l1.22-.25c3.98,1.13,.51,1.44,4.31,2.65l-3.02-.58c.66,.13,1.71,1.18,3.56,1.66,.9-.28,2.46-.4,3.24-.59,2.19,.64,.66,1.02,2.96,1.32l-2.97-.47c-.48,.03,1.43,1.65,4.14,2.88,1.8,.63,4.89,1.13,2.29-.48,1.38,.65,3.12,1.89,1.84,1.77,3.17,1.3-.1-.81,2.7,.2,.44,.46,1.43,1.26,2.52,2.14,1.09,.88,2.28,1.83,3.09,2.68-1.04-.23-2.1-.43-3.16-.6,.59,.33,1.2,.62,1.78,.98-1.34-.29-1.13,.02-.79,.38,.33,.38,.78,.83-.06,.84,1.11,.81,2.69,1.39,3.95,1.87-1.38-1.6-.18-1.44,1.35-1.08,1.54,.34,3.31,1.03,3.16,.17,4.92,2.76,1.28,4.37,7.14,6.09-.59-.81,2.22,0-.88-1.74,2.76,2.12,2.71,.3,5.68,3.23-2.73-1.43,1.82,2.98-2.11,.92,.48-.15-1.75-1.74-2.38-2,.87,1.23-.94,.81,1.86,2.94,1.78,1.19,4.13,2.97,4.19,2.22,.4-.65-2.66-1.95-1.11-1.69,3.55,2.47,3.36,3.82,5.57,3.97-2.17-1.66-2.23-2.67-1.88-3.02l2.66,1.81-.79-.03c3.67,3.58,1.71,.33,5.37,3.72,.38,.74,.72,1.52,1.06,2.28-1.35-.27-5.13-5.08-5.32-3.52,2.35,2.17,3.64,2.34,5.57,4.7-.57-.38-1.25-.99-1.81-1.36,.79,.85,.45,2.84,4.38,5.31,1.92,1.4,.77,.11,1.16-.19,.93,.89,1.71,1.61,2.4,2.22,.69,.62,1.27,1.14,1.81,1.62,1.08,.97,2.04,1.74,3.15,2.98-1.17,.12,3.74,4.51,.61,2.37-.63-1.67-5.66-7.19-7.65-7.78,.48,2.14-2.67-3.02-4.32-2.9,1.48,1.41,1.93,2.33,2.05,2.98,.11,.65-.14,1.06-.18,1.55,.74,.84,1.73,1.39,2.28,1.8,.83-.13-.19-1.19,.26-1.74,1.51,1.7,3.02,3.34,4.49,4.69,1.41,1.4,2.73,2.53,3.81,3.27,.7,1.41-.12,1.45-1.34,.13,3.63,4.01,7.07,8.68,9.82,13-.95-3.38,3.44,4.59,2.94,2.2-1.32-2.44-2.03-4.86-.73-3.9,.91,1.49-.44,.24-.23,.98,1.74,1.5,1.13,3.38,3.09,4.68-3.02-3.97-1.68-.06-2.92-.34,2.34,2.71-.6,.22,1.28,3.16,2.32,2.71,4.86,6.26,6.91,9.64,.81,2.37,2.27,5.14,3.67,7.88,1.43,2.72,2.81,5.41,3.67,7.46,.45,2.32-1.07,1.23-.33,3.62,1.04,2.74,.27-2.43,1.33,1.82l-.33-.33c.34,.58,.84,2.51,1.42,4.41,.58,1.9,1.25,3.77,2.11,4.21l-1.4-1.01c.13,.8,.55,1.47,.84,2.08-.33,.12-.4,1.11-.96-.1-.04,2.75,1.47,5.39,2.01,8.25l.28-1.96c1.45,4.82,1.25,8.25,1.88,13.02l-.64-.09,.58,2.82c-.65-.65-.88,1.98-.29,3.45-.65-2.43-1.31-4.87-2.04-7.25,.19-2.07,.95,2.16,1.46,.83,.47-1.14-.18-5.56-.9-6.18,.14,1.69,.3,1.75,.66,3.04-.8,.65-1.05-1.91-1.81-3.07,.16,.86,.04,2.14,.34,2.29-.64-1.66-.91-3.37-1.43-6.18,.66,1.85,.35-1.14,.72-.45-.81-.09-1.5-2.73-2.14-6.2,.26-2.69-2.27-6.26-3.41-10.17,.65,.65,1.29,1.43,1.89,2.35,.62,.91,1.18,1.96,1.69,3.12-.36-2.61-.87-2.76-1.32-5.37-.98-1-2.09-1.56-3.64-4.55l.47-.38c-1.44-2.72-2.2-2.39-3.65-5.98-2.52-6.14-5.87-12.16-8.45-16.54l.39-.46c-1.24-.91-2.61-2.82-3.97-4.89-1.4-2.04-2.81-4.23-4.16-5.61-.81-1.41-1.8-2.78-2.82-4.1-1-1.34-2.08-2.6-3.1-3.78-.5-.6-.99-1.18-1.45-1.73-.47-.54-.91-1.06-1.31-1.56-.8-1-1.42-1.91-1.78-2.7-3.97-4.12-7.89-7.76-11.93-11.33-4.08-3.52-8.29-6.95-12.96-10.54l2.08,.53c-2.07-.78-.78-1.26-2.57-2.35,1.56,1.91-2.87-.95-4.35-1.36-4.01-3.44-10.15-6.41-14.55-7.94l.11-.59c-4.62-1.26-9.27-4.4-14.64-6.79-.54-.46-1.34-1.33-3.01-1.89-3.29-.29-4.86-.8-9.45-1.69-1.62-.5-3.75-1.11-5.87-1.82l-1.58-.53c-.53-.16-1.05-.31-1.56-.46-1.01-.31-1.96-.61-2.78-.89-3.17-.47-6.39-.75-9.57-1.25-1.59-.24-3.21-.37-4.81-.59-1.61-.18-3.21-.45-4.84-.58-1.62-.15-3.25-.3-4.88-.44l-2.45-.21-2.46-.11-4.94-.16c-1.65-.05-3.31,.06-4.97,.11l-.95-.69c-3.23,.25-6.63,.56-10.1,.74-.87,.04-1.74,.08-2.61,.11l-2.62,.18c-1.75,.11-3.5,.21-5.23,.31-6.92,.54-13.61,1.14-18.95,2.47l.86-1.31c-1.73,.1-3.67,.47-5.03,.93-1.35,.52-2.14,1.06-1.64,1.37-3.44,.39-8.28,2.26-10.59,2.01-3.46,.72-4.03,1.62-6.78,2.55-3.39,.88-5.71,1.55-7.96,2.29-2.23,.77-4.33,1.74-7.37,3.02l1.55-.53c.58-.5,.47-.98-1.1-.45-.55,.3-1.36,.64-2.22,.98-.86,.36-1.74,.78-2.49,1.14-1.49,.74-2.35,1.34-.95,1.46-1.68,.56-3.46,1.25-5.23,2.14-1.75,.92-3.53,1.94-5.3,2.94-1.8,.95-3.48,2.11-5.18,3.07-.84,.49-1.68,.95-2.51,1.36-.84,.41-1.65,.8-2.42,1.18,.69,0-.7,1.02-1.17,1.63-1.27,.86-2.59,1.69-3.91,2.51-1.3,.85-2.55,1.74-3.78,2.6-1.22,.87-2.44,1.69-3.51,2.59-1.05,.91-2.02,1.83-2.86,2.74-.87,.49,.78-1.5-1.17,.09-1.04,1.07,.29,.4-.96,1.73-1.74,1.79-3.5,3.57-5.35,5.24-1.81,1.72-3.57,3.49-5.38,5.17-1.77,1.72-3.43,3.52-5.09,5.25-1.63,1.75-3.06,3.62-4.45,5.42-9.16,13.3-17.45,28.11-22.26,42.84l-.2-.26c-.21,1.3-.53,2.67-.99,4.04-.44,1.38-1.05,2.74-1.5,4.12-.94,2.75-1.81,5.41-1.43,7.61-.53,1.13-1.11,4.52-1.43,3.54,0,1.05-.15,2.27-.4,3.61-.13,.67-.27,1.37-.42,2.1-.13,.73-.26,1.48-.4,2.24-.59,3.05-.97,6.38-.67,9.35,.05-.54-.01-.85-.07-1.48-.45,2.96-.52,5.78-.36,8.61,.03,.71,.05,1.42,.08,2.14,.05,.71,.11,1.43,.16,2.15,.05,.73,.08,1.46,.1,2.22,.04,.75,.11,1.51,.13,2.29-.2-.61-.43-1.75-.73-1.9-.11,1.23,.36,2.62,.71,3.88,.36,1.26,.7,2.37,.15,3.15,.26,1.37,.84,.85,.64,.02,1,6.8,3.17,13.69,6.05,20.33,2.88,6.66,6.46,13.08,10.31,19.21,2.4,4.61,2.02,5.07,1.68,5.15-.34,.08-.68-.16,2.05,2.99,.16,.71,.69,.12,.53,.37,2.08,2.42,1.67,4.92,3.53,6.33,.1-1.22,1.27,.9,1.71,.65,.87,1.34,1.54,2.45,2.11,3.4,.6,.93,1.09,1.72,1.58,2.45,.49,.73,.99,1.41,1.59,2.13,.63,.69,1.36,1.42,2.32,2.27h-.58c4.83,3.64,9.16,9.01,13.83,11.3,12,10.86,25.49,19.62,39.87,25.11,1.79,.72,3.62,1.25,5.43,1.88l2.75,.77c.92,.24,1.82,.54,2.75,.71,1.85,.39,3.68,.85,5.54,1.08l2.79,.43,3,.37c7.99,.98,15.96,1.87,23.96,2.59,15.79,1.64,31.46,2.22,47.05,1.48,15.59-.74,31.11-2.82,46.44-6.73,7.43-.99,8.02-1.19,15.48-4.46-.24,.29-.7,.52-.13,.48,.03-1.04,5.32-2.18,5.65-3.38,2.67-1.16,5.29-2.29,7.79-3.62,1.25-.66,2.53-1.24,3.75-1.96l3.65-2.1c1.23-.68,2.4-1.46,3.59-2.22,1.19-.77,2.39-1.52,3.58-2.32,1.17-.83,2.34-1.66,3.53-2.51,.59-.42,1.19-.84,1.79-1.27,.58-.45,1.16-.91,1.75-1.37-1.43,1.24-1.73,2.43,.01,1l1.5-1.92,.46-.03c1.13-1.05,2.16-2.43,.73-1.69,1.86-1.57,3.62-3.24,5.45-4.83,1.77-1.66,3.48-3.37,5.24-5.03,3.34-3.31,6.39-6.88,9.29-10.68,2.91-3.8,5.6-7.81,8.39-11.99,1.41-2.1,2.82-4.23,4.54-6.47,.88-1.12,1.82-2.28,3.12-3.51,.32-.31,.69-.61,1.15-.98,.49-.34,.96-.71,1.49-.98,.51-.3,1.06-.54,1.61-.75,.27-.11,.57-.16,.86-.24,.29-.07,.57-.17,.86-.21l4.11-.64,3.89-.67c2.59-.47,5.18-.98,7.76-1.52,5.15-1.09,10.27-2.34,15.29-3.79,3.47-.78,7.59-2.01,11.61-3.53,4.01-1.51,7.98-3.32,10.83-5.12,.76-.38,1.47-.78,2.1-1.18,.32-.2,.61-.4,.87-.6,.16-.12,.16-.11,.21-.13,.04-.02,.08-.04,.12-.07,.31-.17,.63-.57,.52-.99-.02-.13-.07-.25-.12-.38-.03-.07-.06-.11-.07-.15,.01,0-.07-.11-.12-.18-.05-.08-.13-.17-.21-.25-.57-.69-1.26-1.4-2.03-2.09-1.53-1.39-3.27-2.73-5.09-4-3.64-2.54-7.55-4.85-11.57-7.01-8.05-4.31-16.62-8.14-25.71-11.48,0,0,.22-.07,.71-.13,.49-.05,1.24-.09,2.29-.01,2.09,.15,5.34,.71,9.91,2.46Z"/><path class="cls-2" d="M389.96,214.6c.37-.91,.46-3.63,1.22-1.51-.42,.29-.79,1.76-1.22,1.51Z"/><path class="cls-2" d="M372.29,144.6c-.17,0-.41-.99-.47-1.23,.52,.75,1.31,1.26,1.49,2-.53-.76-.64-.53-1.03-.78Z"/><path class="cls-2" d="M361.55,129.05c.53-.06,3.26,2.97,4.74,4.86-1.59-1.63-3.1-3.3-4.74-4.86Z"/><path class="cls-2" d="M351.07,114.65c-.83-1.35-.4-1.18,1.05,.32-.05,.26-.61-.15-1.05-.32Z"/><path class="cls-2" d="M349.52,114.41c-1.03-1.06-1.41-1.71-1.76-2.38-.1,.15,.56,.7,1.14,1.23,.57,.55,1.04,1.08,.63,1.15Z"/><path class="cls-2" d="M319.9,89.63c-.83-.45-2.74-1.17-3.26-2.01,.68,.77,4.19,1.85,3.26,2.01Z"/><path class="cls-2" d="M303.68,81.75c-.52-.27-.69-.46-1.36-.61-.91-.58,.26-.45,1.1-.09l.27,.7Z"/><polygon class="cls-2" points="51.1 205.41 51.15 203.46 51.52 203.81 51.1 205.41"/><path class="cls-2" d="M109.97,328.11c1.69,.95,.83,1.11,1.05,1.36-1.42-1.01,.82-.02-1.05-1.36Z"/><polygon class="cls-2" points="180.77 352.73 180.2 352.68 180.49 351.86 180.77 352.73"/></g></svg>