<?xml version="1.0" encoding="UTF-8"?>
<svg id="Layer_1" xmlns="http://www.w3.org/2000/svg" viewBox="0 0 1920 750">
  <defs>
    <style>
      .cls-1 {
        fill: #238AAB;
      }
    </style>
  </defs>
  <path class="cls-1" d="M550.88,563.57c0,10.2-15.2,17.6-24.2,17.6-18,0-27.4-13-28.8-29.8-1.4-18.4-2.8-37-2.8-55.6,0-11.6-.4-26.6,15.6-26.6,9.8,0,16,4,16.4,14.2,.8,16.2,0,56.2,3.8,69.4,6.8,.6,20,1.2,20,10.8Z" />
  <path class="cls-1" d="M666.08,562.37c0,12-3.6,16-15.8,16-30,0-3.6-29.6-27.4-46.4-3.8-2.6-8.2-4.4-13-4.4-3,0-6,.8-9,1.8-.4,9.4-.8,19-.8,28.4l.6,9.4v4.8c0,9.6-7,13.2-15.8,13.2-8.2,0-15.6-4.2-16.4-12.8-.4-3.6-.2-7-.2-10.6v-20.8l-.4-41.8v-20.8c0-9.6,7-14,15.8-14s15.8,3.8,16,12.8c.2,9.4,.8,18.6,1.4,27.8,3.4,1.2,7,1.6,10.6,1.6,10.6,0,19.6-.4,19.6-13.8,0-6.8-3.2-13.2-3.2-19.8,0-8,8.8-11,15.6-11,15.6,0,19.8,16.8,19.8,29.4,0,11.4-4.8,20.8-12.8,28.6,13.4,14.6,15.4,22.8,15.4,42.4Z" />
  <path class="cls-1" d="M715.48,558.17c2.6,.8,5.2,1.6,7.8,1.6,4.8,0,7.2-3.6,7.2-8.2s-2.8-7-7.4-9.2c-2.4-1.2-5-2-8-3s-6.2-1.8-9.4-2.8c-13-4.2-26.2-10.8-26.2-31,0-24.4,25-39.6,47.8-39.6,20.2,0,36.4,10.2,42.8,29,.4,1.4,.6,2.4,.6,3.8,0,7.6-10,11.4-16.2,11.4-9.6,0-14.4-5.6-17.8-10.8l-2.4-3.8c-.8-1.2-1.6-2.4-2.4-3.2-1.6-2-3.2-3-5.4-3-8,0-13,9.6-13,16.8,0,6.2,2.8,8.6,8.6,10.2,18.6,4.6,42.2,11.8,42.2,35.2s-24.2,32.4-44.2,32.4c-4.8,0-12.2-1.8-17-3.2-5.8-2-11.4-6.4-11.4-13.2,0-7.4,9.4-11,15.4-11,1.4,0,3,.2,4.4,.6,1.4,.2,2.8,.6,4,1Z" />
  <path class="cls-1" d="M750.68,383.77c8.2,0,15.6,2.4,15.6,11.8,0,10.4-1,21-2,31.4-1,9.4-6,14.8-15.8,14.8-4.2,0-8.4-1.6-12.6-2.4-6.4,6.8-14.6,9.6-23.8,9.6-12.8,0-30.2-4.8-30.2-20.6,0-17.8,21.8-27.2,37-27.2,4.8,0,9.6,.6,14.4,1.2,1.8-12.2,2.6-18.6,17.4-18.6Zm-34.2,36.6c-2.2,0-6.8,1-6.8,4s4.6,4,6.8,4c1.8,0,9.2-1,9.2-3.6,0-2.8-7-4.4-9.2-4.4Z" />
  <path class="cls-1" d="M801.48,528.77c-10.8-7.4-21.6-15.2-21.6-29.8,0-16,15.2-29.2,30.6-29.2,6.4,0,17.6,2,17.6,10.2,0,10.2-15.8,7-15.8,18.8,0,15.8,22,8.2,22,24.2,0,9.2-1,18.6-1,27.6,0,2.2,.4,4.4,1.4,6.4,3,1.2,6.2,2,9.4,2,2.8,0,5.4-.6,7.8-1.8,.4-3.2,1.4-6.4,1.4-9.8,0-22.2-2.6-44.4-2.6-66.4,0-10.4,6.2-14.6,16.2-14.6,7.6,0,14.8,3.6,15.4,11.8,1.8,20.2,2.8,40.4,2.8,60.6l-.2,8.8v4.4c0,22.2-22.4,29-41,29-9,0-17.8-2-26-5.2-12.2-4.8-16.4-10.8-16.4-24v-23Z" />
  <path class="cls-1" d="M1014.08,582.37c-5.6,1-12.2,2.6-18,2.6-2.8,0-5.8-.4-8.6-1.2-27.2-7.4-19.2-33.2-21-54.8-1-11.4-2.6-22.8-4.4-34-1-5.6-3.8-9.6-9-12-5.8,0-14.2,8-17.4,19.8,.2,.8,.4,1.8,1.2,2.4,13.6,10,9.8,18.2,9.8,33l.2,16.2c5.8,2.2,16.6,4,16.6,12,0,8.8-15.2,12.4-22,12.4-32.8,0-26.8-30.8-26.8-53.2,2.2-2.2-14-4.8-14-13.2,0-3.4,1.2-6.8,2-9.8,6.8-23.6,24-41.2,49.8-41.2,20.4,0,36.8,10,41.2,30.6,4.8,22.4,4.8,45.2,5.6,68,7-2.4,11.4-6.2,17.4-10.2,1-24.2,1.6-48.6,2.8-72.8,.4-9.4,4.8-15,14.8-15,13,0,17,5.2,17,17.6,0,19-1.2,38-2.2,56.8-1,20-.8,41-4.8,60.6-4,19-18.4,28.4-37.2,28.4-9.4,0-32.8-6.2-32.8-18,0-7.4,7.4-10.8,13.8-10.8,8,0,12.6,3.2,19.2,7,5.8-6.4,6.6-13,6.8-21.2Z" />
  <path class="cls-1" d="M1108.48,560.57c9.6-3.8,11-24.8,11-33.8,0-12-2.4-30.8-15-36-1.6,1.8-3.6,3.4-4.8,5.6-4.8,8-.6,17.6-18.2,17.6-7.4,0-15.6-3.6-15.6-12.2,0-19.4,20.6-34.6,38.8-34.6,5,0,10,1.2,14.6,3.2,24.2,10.8,31.8,30.4,31.8,55.6,0,20.8-3,40.4-21.8,52.4-6.4,4-13.6,6.4-21.2,6.4-15.4,0-36.8-13.4-36.8-30.2,0-9,10.2-11.8,17.6-11.8,12,0,12.8,9.2,18.2,17.2l1.4,.6Z" />
  <path class="cls-1" d="M1129.28,441.37c-3.4-.4-6.8-1.6-10.6-2.4-6.8,7-15,9.6-23.8,9.6-12,0-26-3.4-29.6-16.6-2.2-8,2.6-17.8,11.2-23.6,9-6.2,19.2-8.4,30.2-7.4,16.6,0,40.4,13.2,40.4,25.6-1,12.2-7.4,15.6-17.8,14.8Zm-33-20.8c-4.8,0-6.8,2.4-6.8,4,0,2.8,4.2,4,6.8,4,3.2,0,9.2-1.4,9.2-3.6,0-2.4-5.8-4.4-9.2-4.4Z" />
  <path class="cls-1" d="M1225.48,563.57c0,10.2-15.2,17.6-24.2,17.6-18,0-27.4-13-28.8-29.8-1.4-18.4-2.8-37-2.8-55.6,0-11.6-.4-26.6,15.6-26.6,9.8,0,16,4,16.4,14.2,.8,16.2,0,56.2,3.8,69.4,6.8,.6,20,1.2,20,10.8Z" />
  <path class="cls-1" d="M1269.88,552.37c-3.2,13.8,0,29.8-19.2,29.8-7,0-15.6-4.4-15.6-12,0-8,2.6-17.8,4.2-25.8,5.6-29,14.6-75,50.8-78,3.2-.2,6.4-.6,9.6-.6,9,0,17.4,4,25.6,7.2,1.4-12.4,.2-22,16.8-22,10.8,0,16.2,6,16.2,16.6,0,11.2-3.4,21.4-13.4,27.6-1.4,.8-2.4,1.6-3.6,2.6v2.4c0,1.4,0,2.6,.4,3.8,3,11.6,4.4,22.8,4.4,34.8v21.6c0,11.8,.6,25.2-15.4,25.2-7,0-16.2-3.4-16.2-11.6,0-25.8,3.6-60.8-12.8-83.4-1.2-1.6-2.6-3-4.8-3-9,0-17.2,24.2-19,31.4,8.4,3,29.4,10.8,29.4,21.6,0,7.4-9.6,10.8-15.8,10.8-7.6,0-12.4-4.8-18.4-8.8-1.2,3.2-2.4,6.4-3.2,9.8Z" />
  <path class="cls-1" d="M1408.88,523.77c0-12.2,15.2-15.2,22.8-15.2,1.6-10.8,.4-18.2,.4-28.2,0-9.4,8.8-13.8,17.2-13.8,4,0,8.2,1.2,11,4,6.2,6.2,4.4,31,4.4,38.6,8,2,13.6,6.6,13.6,13.6,0,8.6-4.6,15.2-16.6,17-.8,2.4-1.4,6.8-2,9.2-5.8,22.4-24.2,32-46.2,32-20,0-39.6-16.4-42-36.4-.8-7-1.2-14-1.2-21.2s.4-14,1.6-21c2-12.2,2.2-27,18.6-27,5.6,0,15.2,2.6,15.2,9.6,0,12.4-3.6,24.6-3.6,37.4s-.4,25.2,10.4,34.4c1.6,1.2,3.2,2.2,5.2,2.2,7.6,0,11.2-13.8,12-19.6-10-.2-20.8-5.2-20.8-15.6Z" />
</svg>