<?xml version="1.0" encoding="UTF-8"?><svg id="Layer_1" xmlns="http://www.w3.org/2000/svg" viewBox="0 0 496 426"><defs><style>.cls-1,.cls-2{fill:none;}.cls-3,.cls-4,.cls-5{fill:#ffcb06;}.cls-6{fill:#fdfff4;}.cls-4,.cls-5,.cls-2{stroke:#fdfff4;}.cls-4,.cls-2{stroke-miterlimit:10;stroke-width:2.83px;}.cls-5{stroke-miterlimit:10;stroke-width:2.83px;}</style></defs><g id="Layer_1-2"><g><polygon class="cls-6" points="179.46 229.27 187.22 298.13 272.57 298.13 267.72 229.27 179.46 229.27"/><polygon class="cls-3" points="279.36 228.3 279.36 297.16 316.21 297.16 319.12 228.3 279.36 228.3"/><path class="cls-6" d="M286.15,181.75l-76.62,.97,8.73,15.52-12.61,1.94-9.7-17.46s-.97-16.49,19.4-25.22l92.14,1.94"/><path class="cls-3" d="M307.48,159.44s21.34,11.64,21.34,32.98-.97,25.22-9.7,35.88h-7.03l-25.94-46.55,21.34-22.31h0Z"/><g><polygon class="cls-1" points="220.2 261.28 219.23 275.82 233.78 276.79 230.87 260.31 220.2 261.28"/><circle class="cls-1" cx="225.53" cy="255.94" r="10.18"/></g><path class="cls-3" d="M191.1,223.45l101.83-1.94s-3.88-9.7-7.76-11.64-5.82-.97-9.7,0c0,0-.97-7.76-5.82-8.73s-21.34,4.85-21.34,4.85c0,0-6.79-6.79-12.61-6.79s-13.58,9.7-13.58,9.7c0,0-17.46-1.94-23.28,.97s-7.76,13.58-7.76,13.58h.02Z"/><ellipse class="cls-4" cx="222.14" cy="206.72" rx="11.64" ry="4.61"/><ellipse class="cls-5" cx="255.11" cy="217.38" rx="11.64" ry="4.61" transform="translate(-47.87 74.07) rotate(-15.12)"/><path class="cls-3" d="M170.86,215.57s-1.72-12.15-4-14.43-14.79-4.36-14.79-4.36c0,0,12.58-1.4,14.79-4.36,2.21-2.97,3.52-13.94,3.52-13.94,0,0,2.3,11.03,5.21,13.94,2.28,2.28,13.58,4.85,13.58,4.85,0,0-10.61,1.67-13.58,3.88s-4.73,14.43-4.73,14.43h0Z"/><path class="cls-3" d="M335.61,164.29s-2.31-17.29-5.53-20.51-21.02-6.04-21.02-6.04c0,0,17.94-2.14,21.13-6.4,3.18-4.26,5.18-19.91,5.18-19.91,0,0,3.15,15.69,7.26,19.8,3.22,3.22,19.29,6.75,19.29,6.75,0,0-15.14,2.51-19.4,5.69-4.26,3.18-6.91,20.61-6.91,20.61h0Z"/><g><path class="cls-3" d="M197.47,297.63s-12.22,5.35-20.64,5.35-20.64-5.35-20.64-5.35v-25.35h41.28v25.35Z"/><path class="cls-2" d="M197.47,295.46c0,4.05-9.24,7.33-20.64,7.33s-20.64-3.28-20.64-7.33"/><path class="cls-2" d="M197.47,287.93c0,4.05-9.24,7.33-20.64,7.33s-20.64-3.28-20.64-7.33"/><path class="cls-2" d="M197.47,280.4c0,4.05-9.24,7.33-20.64,7.33s-20.64-3.28-20.64-7.33"/><ellipse class="cls-4" cx="176.83" cy="272.48" rx="20.64" ry="7.33"/><line class="cls-2" x1="156.19" y1="272.29" x2="156.19" y2="295.65"/><line class="cls-2" x1="197.47" y1="272.68" x2="197.47" y2="295.65"/></g></g></g></svg>